HIERARCHY
ROOT Hips
{
	OFFSET 0.000000 0.000000 0.000000
	CHANNELS 6 Xposition Yposition Zposition Xrotation Yrotation Zrotation
	JOINT LeftUpLeg_virtual
	{
		OFFSET 0.000000 0.000000 0.000000
		CHANNELS 3 Xrotation Yrotation Zrotation
		JOINT LeftUpLeg
		{
			OFFSET 15.427100 -6.655098 0.678600
			CHANNELS 3 Xrotation Yrotation Zrotation
			JOINT LeftLeg
			{
				OFFSET 4.081073 -39.591068 13.024000
				CHANNELS 3 Xrotation Yrotation Zrotation
				JOINT LeftFoot
				{
					OFFSET -4.081074 -37.707932 -15.979700
					CHANNELS 3 Xrotation Yrotation Zrotation
					JOINT LeftToeBase
					{
						OFFSET 5.346399 -15.068900 20.645000
						CHANNELS 3 Xrotation Yrotation Zrotation
						JOINT LeftToe_End
						{
							OFFSET 2.754700 0.931300 11.300900
							CHANNELS 3 Xrotation Yrotation Zrotation
							End Site
							{
								OFFSET 0 0 0
							}
						}
					}
				}
			}
		}
	}
	JOINT RightUpLeg_virtual
	{
		OFFSET 0.000000 0.000000 0.000000
		CHANNELS 3 Xrotation Yrotation Zrotation
		JOINT RightUpLeg
		{
			OFFSET -15.569500 -6.655098 0.678600
			CHANNELS 3 Xrotation Yrotation Zrotation
			JOINT RightLeg
			{
				OFFSET -4.081825 -39.591045 13.023800
				CHANNELS 3 Xrotation Yrotation Zrotation
				JOINT RightFoot
				{
					OFFSET 4.081824 -37.707954 -15.979600
					CHANNELS 3 Xrotation Yrotation Zrotation
					JOINT RightToeBase
					{
						OFFSET -5.346400 -15.068900 20.645000
						CHANNELS 3 Xrotation Yrotation Zrotation
						JOINT RightToe_End
						{
							OFFSET -2.754700 0.931300 11.300900
							CHANNELS 3 Xrotation Yrotation Zrotation
							End Site
							{
								OFFSET 0 0 0
							}
						}
					}
				}
			}
		}
	}
	JOINT Spine_virtual
	{
		OFFSET 0.000000 0.000000 0.000000
		CHANNELS 3 Xrotation Yrotation Zrotation
		JOINT Spine
		{
			OFFSET -0.279200 12.230698 -2.892100
			CHANNELS 3 Xrotation Yrotation Zrotation
			JOINT Spine1
			{
				OFFSET -0.232667 10.192268 -1.242267
				CHANNELS 3 Xrotation Yrotation Zrotation
				JOINT Spine1_split
				{
					OFFSET -0.232667 10.192268 -1.242267
					CHANNELS 3 Xrotation Yrotation Zrotation
					JOINT Spine2
					{
						OFFSET -0.232667 10.192268 -1.242267
						CHANNELS 3 Xrotation Yrotation Zrotation
						JOINT Neck_virtual
						{
							OFFSET 0.000000 0.000000 0.000000
							CHANNELS 3 Xrotation Yrotation Zrotation
							JOINT Neck
							{
								OFFSET -0.418800 17.814194 8.416900
								CHANNELS 3 Xrotation Yrotation Zrotation
								JOINT Head
								{
									OFFSET 0.000000 7.031097 3.806800
									CHANNELS 3 Xrotation Yrotation Zrotation
									JOINT HeadTop_End
									{
										OFFSET 0.000000 24.646606 12.978600
										CHANNELS 3 Xrotation Yrotation Zrotation
										End Site
										{
											OFFSET 0 0 0
										}
									}
								}
							}
						}
						JOINT LeftShoulder_virtual
						{
							OFFSET 0.000000 0.000000 0.000000
							CHANNELS 3 Xrotation Yrotation Zrotation
							JOINT LeftShoulder
							{
								OFFSET 8.476499 7.247704 -3.868750
								CHANNELS 3 Xrotation Yrotation Zrotation
								JOINT LeftShoulder_split
								{
									OFFSET 8.476499 7.247704 -3.868750
									CHANNELS 3 Xrotation Yrotation Zrotation
									JOINT LeftArm
									{
										OFFSET 9.308998 -2.777710 0.208600
										CHANNELS 3 Xrotation Yrotation Zrotation
										JOINT LeftForeArm
										{
											OFFSET 29.972298 0.000000 0.000000
											CHANNELS 3 Xrotation Yrotation Zrotation
											JOINT LeftHand
											{
												OFFSET 26.026505 0.000000 0.000000
												CHANNELS 3 Xrotation Yrotation Zrotation
												End Site
												{
													OFFSET 0 0 0
												}
											}
										}
									}
								}
							}
						}
						JOINT RightShoulder_virtual
						{
							OFFSET 0.000000 0.000000 0.000000
							CHANNELS 3 Xrotation Yrotation Zrotation
							JOINT RightShoulder
							{
								OFFSET -7.570500 7.247704 -3.868750
								CHANNELS 3 Xrotation Yrotation Zrotation
								JOINT RightShoulder_split
								{
									OFFSET -7.570500 7.247704 -3.868750
									CHANNELS 3 Xrotation Yrotation Zrotation
									JOINT RightArm
									{
										OFFSET -9.308998 -2.777710 0.208500
										CHANNELS 3 Xrotation Yrotation Zrotation
										JOINT RightForeArm
										{
											OFFSET -29.972300 0.000000 0.000000
											CHANNELS 3 Xrotation Yrotation Zrotation
											JOINT RightHand
											{
												OFFSET -26.026505 0.000000 0.000000
												CHANNELS 3 Xrotation Yrotation Zrotation
												End Site
												{
													OFFSET 0 0 0
												}
											}
										}
									}
								}
							}
						}
					}
				}
			}
		}
	}
}
MOTION
Frames: 7
Frame Time: 0.03333333
4.589144 95.488388 -7.973093 0.000000 0.000000 0.000000 -3.186860 0.135426 1.467977 -5.168798 12.439171 6.239619 13.362070 4.395068 3.584216 -6.085276 9.250843 -14.696231 3.956635 -4.742503 0.166734 0.000000 0.000000 0.000000 -3.120193 0.146712 1.518621 0.258615 -12.971841 -3.601810 14.503087 -1.127393 -0.512129 -13.880334 -13.447816 11.174499 3.354351 4.484964 -7.868293 0.000000 0.000000 0.000000 -3.589591 2.428111 1.505488 1.405863 0.931104 -1.418656 0.131454 -1.027628 0.329808 0.122521 -0.304718 -0.017984 0.000000 0.000000 0.000000 0.906726 1.211309 -0.203017 1.947730 4.247925 3.250208 0.860099 -14.540978 -10.039103 0.000000 0.000000 0.000000 -0.407185 -0.328360 -0.350549 1.923861 -8.297243 -11.727452 0.251401 -2.210021 -3.478693 -3.199521 -3.487679 -58.627059 2.632369 -19.156054 -3.375747 0.000000 0.000000 0.000000 0.397756 -0.164308 0.069432 3.012085 -3.459430 14.322435 -5.945537 -0.568241 0.371385 2.846366 5.398506 64.290426 -4.219474 18.046079 4.588021 0.000000 0.000000 0.000000 
4.625216 95.518204 -8.196421 0.000000 0.000000 0.000000 -3.287672 0.157364 1.486599 -5.340244 12.425503 6.257547 13.394071 4.412418 3.602202 -5.914935 9.079738 -14.741773 3.977358 -4.717180 0.106729 0.000000 0.000000 0.000000 -3.221028 0.226102 1.535621 0.419289 -12.910029 -3.580045 14.378976 -1.143450 -0.530128 -13.822656 -13.502711 11.178183 3.559312 4.447371 -7.846764 0.000000 0.000000 0.000000 -3.716091 2.607390 1.577553 1.513549 1.037635 -1.338143 0.190616 -0.968789 0.298854 0.133138 -0.256907 0.001300 0.000000 0.000000 0.000000 0.842397 1.243643 -0.202918 1.930048 4.171166 3.306359 0.757289 -14.760466 -9.920243 0.000000 0.000000 0.000000 -0.401884 -0.269888 -0.409004 1.896878 -8.035763 -11.878164 0.107697 -1.698835 -3.696619 -2.241701 -2.731335 -58.462745 2.722030 -18.171491 -3.310372 0.000000 0.000000 0.000000 0.429228 -0.087556 0.020706 2.920945 -3.218255 14.241348 -6.152485 0.036356 0.274479 1.986155 5.897260 64.288186 -4.178935 18.831578 4.435127 0.000000 0.000000 0.000000 
4.606100 95.491920 -8.484571 0.000000 0.000000 0.000000 -3.484498 0.487579 1.614780 -5.684884 12.369579 6.209281 13.651384 4.429217 3.572906 -5.805675 8.726396 -14.559837 4.095218 -4.685885 0.117536 0.000000 0.000000 0.000000 -3.417087 0.658056 1.648788 0.627796 -12.792998 -3.596501 14.562377 -1.197549 -0.517383 -13.937624 -13.744268 11.163206 3.577862 4.404041 -7.920517 0.000000 0.000000 0.000000 -4.006873 3.032801 1.707084 1.795510 1.185729 -1.194569 0.234084 -0.862040 0.238131 0.143800 -0.253998 0.011630 0.000000 0.000000 0.000000 0.766310 1.327522 -0.232975 1.888768 4.084718 3.402270 0.556703 -15.275428 -9.808262 0.000000 0.000000 0.000000 -0.390436 -0.170259 -0.505310 1.880535 -7.757118 -11.962229 -0.133283 -1.449756 -3.650499 -0.945758 -1.416740 -58.453572 2.735924 -16.919767 -3.271720 0.000000 0.000000 0.000000 0.467747 0.044445 -0.058012 2.804267 -2.793766 14.137846 -6.004187 0.111190 0.318858 0.728472 6.907993 64.204338 -4.056192 19.893524 4.208939 0.000000 0.000000 0.000000 
4.537146 95.423576 -8.788065 0.000000 0.000000 0.000000 -3.738080 1.069704 1.821284 -6.126726 12.278570 6.094627 14.109472 4.426284 3.520544 -5.790116 8.230880 -14.199364 4.328223 -4.649002 0.195183 0.000000 0.000000 0.000000 -3.685678 1.348032 1.841717 0.891810 -12.617005 -3.638117 14.937320 -1.288441 -0.494295 -14.282842 -14.158539 11.082533 3.494651 4.353545 -8.070969 0.000000 0.000000 0.000000 -4.413298 3.630700 1.878182 2.191341 1.348399 -1.033682 0.255384 -0.726092 0.163473 0.152080 -0.276292 0.005829 0.000000 0.000000 0.000000 0.702946 1.448248 -0.281293 1.816881 4.004304 3.508606 0.275257 -16.015648 -9.736859 0.000000 0.000000 0.000000 -0.377097 -0.042888 -0.610592 1.889140 -7.466714 -11.946377 -0.285675 -1.502050 -3.429532 0.439520 0.231662 -58.564009 2.679446 -15.790421 -3.250887 0.000000 0.000000 0.000000 0.507507 0.207549 -0.141195 2.674436 -2.265447 14.059961 -5.587216 -0.257168 0.516309 -0.634161 8.098606 64.078950 -3.861492 21.064028 3.948737 0.000000 0.000000 0.000000 
4.453506 95.324623 -9.113676 0.000000 0.000000 0.000000 -4.015841 1.803110 2.062675 -6.603663 12.173983 5.947881 14.696743 4.385491 3.470921 -5.864846 7.633150 -13.766642 4.651976 -4.602001 0.331887 0.000000 0.000000 0.000000 -3.993247 2.164124 2.073441 1.180437 -12.385702 -3.665702 15.402777 -1.425963 -0.472504 -14.819248 -14.726050 10.867805 3.473402 4.294876 -8.272838 0.000000 0.000000 0.000000 -4.888148 4.326289 2.079722 2.628038 1.492412 -0.898777 0.253348 -0.577386 0.092734 0.159061 -0.297302 0.004510 0.000000 0.000000 0.000000 0.668328 1.592504 -0.325666 1.713598 3.935501 3.596839 -0.047074 -16.880550 -9.740353 0.000000 0.000000 0.000000 -0.372246 0.103131 -0.702685 1.926504 -7.152756 -11.866410 -0.288416 -1.611964 -3.126374 1.788023 2.077680 -58.820080 2.581825 -14.876446 -3.246990 0.000000 0.000000 0.000000 0.540575 0.379337 -0.205508 2.567452 -1.700257 14.028938 -5.066559 -0.667946 0.705682 -1.905178 9.180194 63.978464 -3.646934 22.310847 3.728609 0.000000 0.000000 0.000000 
4.369278 95.211891 -9.405069 0.000000 0.000000 0.000000 -4.289942 2.550068 2.298124 -7.003280 12.082732 5.786227 15.300771 4.322494 3.438688 -6.047969 7.011555 -13.304728 5.001132 -4.544848 0.521866 0.000000 0.000000 0.000000 -4.300165 2.986129 2.305594 1.439957 -12.129361 -3.662820 15.878453 -1.595269 -0.437433 -15.381625 -15.399611 10.555904 3.573410 4.234582 -8.497146 0.000000 0.000000 0.000000 -5.351560 5.047687 2.288188 3.036647 1.591472 -0.819329 0.222100 -0.430295 0.047110 0.170740 -0.318807 -0.004872 0.000000 0.000000 0.000000 0.645237 1.746916 -0.344315 1.573264 3.884779 3.645750 -0.361737 -17.798776 -9.828117 0.000000 0.000000 0.000000 -0.381840 0.255414 -0.753592 1.987471 -6.803928 -11.717629 -0.249512 -1.718867 -2.912041 3.027427 3.870850 -59.194224 2.450009 -14.146982 -3.249830 0.000000 0.000000 0.000000 0.562202 0.542477 -0.232677 2.505232 -1.157939 14.042668 -4.531784 -0.893659 0.863544 -2.952116 9.959971 63.934655 -3.468311 23.605914 3.616057 0.000000 0.000000 0.000000 
4.290281 95.115601 -9.659342 0.000000 0.000000 0.000000 -4.547171 3.210272 2.493751 -7.298563 12.008806 5.624934 15.849297 4.254586 3.436844 -6.322772 6.423421 -12.861957 5.346918 -4.472375 0.738795 0.000000 0.000000 0.000000 -4.585433 3.726173 2.508471 1.623738 -11.880955 -3.620124 16.334179 -1.778529 -0.397069 -15.797463 -16.135663 10.242866 3.709042 4.187505 -8.726814 0.000000 0.000000 0.000000 -5.767854 5.756194 2.484612 3.385152 1.639082 -0.802125 0.167869 -0.291794 0.037385 0.182141 -0.330265 -0.002570 0.000000 0.000000 0.000000 0.629904 1.896784 -0.323244 1.394379 3.849467 3.645339 -0.632464 -18.733657 -9.999090 0.000000 0.000000 0.000000 -0.402328 0.402103 -0.755507 2.055843 -6.433092 -11.528599 -0.216422 -1.776220 -2.847603 4.202278 5.474913 -59.628166 2.316934 -13.532397 -3.214392 0.000000 0.000000 0.000000 0.561995 0.688008 -0.222837 2.467568 -0.653593 14.057952 -4.030111 -0.886397 0.981028 -3.814883 10.362150 63.955009 -3.363754 24.927108 3.628206 0.000000 0.000000 0.000000 
